{
    "asset" : {
        "generator" : "Khronos glTF Blender I/O v1.7.33",
        "version" : "2.0"
    },
    "scene" : 0,
    "scenes" : [
        {
            "name" : "Scene",
            "nodes" : [
                7
            ]
        }
    ],
    "nodes" : [
        {
            "name" : "Bone.005",
            "rotation" : [
                0.013789113610982895,
                0.0164629053324461,
                -0.09129735082387924,
                0.9955921173095703
            ],
            "scale" : [
                0.9999999403953552,
                0.9999999403953552,
                1.0000001192092896
            ],
            "translation" : [
                -3.021205798354348e-15,
                0.5908330678939819,
                8.110308158393309e-08
            ]
        },
        {
            "children" : [
                0
            ],
            "name" : "Bone.004",
            "rotation" : [
                0.030069520696997643,
                0.010588931851089,
                -0.046832624822854996,
                0.9983940124511719
            ],
            "scale" : [
                0.9999999403953552,
                0.9999998807907104,
                1
            ],
            "translation" : [
                -5.960465898624534e-08,
                0.667138934135437,
                -5.528590918402188e-10
            ]
        },
        {
            "children" : [
                1
            ],
            "name" : "Bone.003",
            "rotation" : [
                -0.048366203904151917,
                0.0033575715497136116,
                -0.016222627833485603,
                0.9986922740936279
            ],
            "translation" : [
                5.960464477539063e-08,
                0.7280511856079102,
                2.235172757991677e-08
            ]
        },
        {
            "children" : [
                2
            ],
            "name" : "Bone.002",
            "rotation" : [
                -0.09201323986053467,
                0.009861884638667107,
                -0.1579279899597168,
                0.9831048250198364
            ],
            "scale" : [
                0.9999999403953552,
                1,
                0.9999999403953552
            ],
            "translation" : [
                2.9802317058624794e-08,
                0.8683943748474121,
                2.3983554697792897e-08
            ]
        },
        {
            "children" : [
                3
            ],
            "name" : "Bone.001",
            "rotation" : [
                0.015440821647644043,
                -0.0010753670940175653,
                -0.06946872919797897,
                0.9974640607833862
            ],
            "scale" : [
                1.0000001192092896,
                1.000000238418579,
                1.0000001192092896
            ],
            "translation" : [
                1.4901218037266517e-08,
                0.9544922709465027,
                3.7069054492633313e-09
            ]
        },
        {
            "children" : [
                4
            ],
            "name" : "Bone",
            "rotation" : [
                -3.91155978718416e-08,
                9.94167450585337e-08,
                0.10060475766658783,
                0.9949264526367188
            ],
            "scale" : [
                1,
                0.9999998807907104,
                0.9999998807907104
            ],
            "translation" : [
                -4.262066113369656e-07,
                -7.949223572722985e-07,
                2.86102294921875e-06
            ]
        },
        {
            "mesh" : 0,
            "name" : "leaf.198",
            "skin" : 0
        },
        {
            "children" : [
                6,
                5
            ],
            "name" : "one_LEAF",
            "rotation" : [
                0,
                -0.18930697441101074,
                0,
                0.9819179773330688
            ],
            "scale" : [
                0.9995308518409729,
                0.9995308518409729,
                0.9995308518409729
            ],
            "translation" : [
                11.852866172790527,
                0.2829720973968506,
                0.2232946753501892
            ]
        }
    ],
    "animations" : [
        {
            "channels" : [
                {
                    "sampler" : 0,
                    "target" : {
                        "node" : 5,
                        "path" : "translation"
                    }
                },
                {
                    "sampler" : 1,
                    "target" : {
                        "node" : 5,
                        "path" : "rotation"
                    }
                },
                {
                    "sampler" : 2,
                    "target" : {
                        "node" : 5,
                        "path" : "scale"
                    }
                },
                {
                    "sampler" : 3,
                    "target" : {
                        "node" : 4,
                        "path" : "translation"
                    }
                },
                {
                    "sampler" : 4,
                    "target" : {
                        "node" : 4,
                        "path" : "rotation"
                    }
                },
                {
                    "sampler" : 5,
                    "target" : {
                        "node" : 4,
                        "path" : "scale"
                    }
                },
                {
                    "sampler" : 6,
                    "target" : {
                        "node" : 3,
                        "path" : "translation"
                    }
                },
                {
                    "sampler" : 7,
                    "target" : {
                        "node" : 3,
                        "path" : "rotation"
                    }
                },
                {
                    "sampler" : 8,
                    "target" : {
                        "node" : 3,
                        "path" : "scale"
                    }
                },
                {
                    "sampler" : 9,
                    "target" : {
                        "node" : 2,
                        "path" : "translation"
                    }
                },
                {
                    "sampler" : 10,
                    "target" : {
                        "node" : 2,
                        "path" : "rotation"
                    }
                },
                {
                    "sampler" : 11,
                    "target" : {
                        "node" : 2,
                        "path" : "scale"
                    }
                },
                {
                    "sampler" : 12,
                    "target" : {
                        "node" : 1,
                        "path" : "translation"
                    }
                },
                {
                    "sampler" : 13,
                    "target" : {
                        "node" : 1,
                        "path" : "rotation"
                    }
                },
                {
                    "sampler" : 14,
                    "target" : {
                        "node" : 1,
                        "path" : "scale"
                    }
                },
                {
                    "sampler" : 15,
                    "target" : {
                        "node" : 0,
                        "path" : "translation"
                    }
                },
                {
                    "sampler" : 16,
                    "target" : {
                        "node" : 0,
                        "path" : "rotation"
                    }
                },
                {
                    "sampler" : 17,
                    "target" : {
                        "node" : 0,
                        "path" : "scale"
                    }
                }
            ],
            "name" : "ONELEAF",
            "samplers" : [
                {
                    "input" : 7,
                    "interpolation" : "LINEAR",
                    "output" : 8
                },
                {
                    "input" : 9,
                    "interpolation" : "LINEAR",
                    "output" : 10
                },
                {
                    "input" : 9,
                    "interpolation" : "LINEAR",
                    "output" : 11
                },
                {
                    "input" : 7,
                    "interpolation" : "LINEAR",
                    "output" : 12
                },
                {
                    "input" : 9,
                    "interpolation" : "LINEAR",
                    "output" : 13
                },
                {
                    "input" : 7,
                    "interpolation" : "LINEAR",
                    "output" : 14
                },
                {
                    "input" : 7,
                    "interpolation" : "LINEAR",
                    "output" : 15
                },
                {
                    "input" : 9,
                    "interpolation" : "LINEAR",
                    "output" : 16
                },
                {
                    "input" : 7,
                    "interpolation" : "LINEAR",
                    "output" : 17
                },
                {
                    "input" : 7,
                    "interpolation" : "LINEAR",
                    "output" : 18
                },
                {
                    "input" : 9,
                    "interpolation" : "LINEAR",
                    "output" : 19
                },
                {
                    "input" : 7,
                    "interpolation" : "LINEAR",
                    "output" : 20
                },
                {
                    "input" : 7,
                    "interpolation" : "LINEAR",
                    "output" : 21
                },
                {
                    "input" : 9,
                    "interpolation" : "LINEAR",
                    "output" : 22
                },
                {
                    "input" : 7,
                    "interpolation" : "LINEAR",
                    "output" : 23
                },
                {
                    "input" : 7,
                    "interpolation" : "LINEAR",
                    "output" : 24
                },
                {
                    "input" : 9,
                    "interpolation" : "LINEAR",
                    "output" : 25
                },
                {
                    "input" : 7,
                    "interpolation" : "LINEAR",
                    "output" : 26
                }
            ]
        }
    ],
    "materials" : [
        {
            "alphaCutoff" : 0.5,
            "alphaMode" : "MASK",
            "name" : "fernLeaf",
            "pbrMetallicRoughness" : {}
        }
    ],
    "meshes" : [
        {
            "name" : "Plane.118",
            "primitives" : [
                {
                    "attributes" : {
                        "POSITION" : 0,
                        "NORMAL" : 1,
                        "TEXCOORD_0" : 2,
                        "JOINTS_0" : 3,
                        "WEIGHTS_0" : 4
                    },
                    "indices" : 5,
                    "material" : 0
                }
            ]
        }
    ],
    "skins" : [
        {
            "inverseBindMatrices" : 6,
            "joints" : [
                5,
                4,
                3,
                2,
                1,
                0
            ],
            "name" : "one_LEAF"
        }
    ],
    "accessors" : [
        {
            "bufferView" : 0,
            "componentType" : 5126,
            "count" : 384,
            "max" : [
                -3.211003541946411,
                0.3193703293800354,
                12.249780654907227
            ],
            "min" : [
                -5.859612464904785,
                0.23720157146453857,
                11.032782554626465
            ],
            "type" : "VEC3"
        },
        {
            "bufferView" : 1,
            "componentType" : 5126,
            "count" : 384,
            "type" : "VEC3"
        },
        {
            "bufferView" : 2,
            "componentType" : 5126,
            "count" : 384,
            "type" : "VEC2"
        },
        {
            "bufferView" : 3,
            "componentType" : 5121,
            "count" : 384,
            "type" : "VEC4"
        },
        {
            "bufferView" : 4,
            "componentType" : 5126,
            "count" : 384,
            "type" : "VEC4"
        },
        {
            "bufferView" : 5,
            "componentType" : 5123,
            "count" : 768,
            "type" : "SCALAR"
        },
        {
            "bufferView" : 6,
            "componentType" : 5126,
            "count" : 6,
            "type" : "MAT4"
        },
        {
            "bufferView" : 7,
            "componentType" : 5126,
            "count" : 2,
            "max" : [
                1.6666666666666667
            ],
            "min" : [
                0.041666666666666664
            ],
            "type" : "SCALAR"
        },
        {
            "bufferView" : 8,
            "componentType" : 5126,
            "count" : 2,
            "type" : "VEC3"
        },
        {
            "bufferView" : 9,
            "componentType" : 5126,
            "count" : 40,
            "max" : [
                1.6666666666666667
            ],
            "min" : [
                0.041666666666666664
            ],
            "type" : "SCALAR"
        },
        {
            "bufferView" : 10,
            "componentType" : 5126,
            "count" : 40,
            "type" : "VEC4"
        },
        {
            "bufferView" : 11,
            "componentType" : 5126,
            "count" : 40,
            "type" : "VEC3"
        },
        {
            "bufferView" : 12,
            "componentType" : 5126,
            "count" : 2,
            "type" : "VEC3"
        },
        {
            "bufferView" : 13,
            "componentType" : 5126,
            "count" : 40,
            "type" : "VEC4"
        },
        {
            "bufferView" : 14,
            "componentType" : 5126,
            "count" : 2,
            "type" : "VEC3"
        },
        {
            "bufferView" : 15,
            "componentType" : 5126,
            "count" : 2,
            "type" : "VEC3"
        },
        {
            "bufferView" : 16,
            "componentType" : 5126,
            "count" : 40,
            "type" : "VEC4"
        },
        {
            "bufferView" : 17,
            "componentType" : 5126,
            "count" : 2,
            "type" : "VEC3"
        },
        {
            "bufferView" : 18,
            "componentType" : 5126,
            "count" : 2,
            "type" : "VEC3"
        },
        {
            "bufferView" : 19,
            "componentType" : 5126,
            "count" : 40,
            "type" : "VEC4"
        },
        {
            "bufferView" : 20,
            "componentType" : 5126,
            "count" : 2,
            "type" : "VEC3"
        },
        {
            "bufferView" : 21,
            "componentType" : 5126,
            "count" : 2,
            "type" : "VEC3"
        },
        {
            "bufferView" : 22,
            "componentType" : 5126,
            "count" : 40,
            "type" : "VEC4"
        },
        {
            "bufferView" : 23,
            "componentType" : 5126,
            "count" : 2,
            "type" : "VEC3"
        },
        {
            "bufferView" : 24,
            "componentType" : 5126,
            "count" : 2,
            "type" : "VEC3"
        },
        {
            "bufferView" : 25,
            "componentType" : 5126,
            "count" : 40,
            "type" : "VEC4"
        },
        {
            "bufferView" : 26,
            "componentType" : 5126,
            "count" : 2,
            "type" : "VEC3"
        }
    ],
    "bufferViews" : [
        {
            "buffer" : 0,
            "byteLength" : 4608,
            "byteOffset" : 0
        },
        {
            "buffer" : 0,
            "byteLength" : 4608,
            "byteOffset" : 4608
        },
        {
            "buffer" : 0,
            "byteLength" : 3072,
            "byteOffset" : 9216
        },
        {
            "buffer" : 0,
            "byteLength" : 1536,
            "byteOffset" : 12288
        },
        {
            "buffer" : 0,
            "byteLength" : 6144,
            "byteOffset" : 13824
        },
        {
            "buffer" : 0,
            "byteLength" : 1536,
            "byteOffset" : 19968
        },
        {
            "buffer" : 0,
            "byteLength" : 384,
            "byteOffset" : 21504
        },
        {
            "buffer" : 0,
            "byteLength" : 8,
            "byteOffset" : 21888
        },
        {
            "buffer" : 0,
            "byteLength" : 24,
            "byteOffset" : 21896
        },
        {
            "buffer" : 0,
            "byteLength" : 160,
            "byteOffset" : 21920
        },
        {
            "buffer" : 0,
            "byteLength" : 640,
            "byteOffset" : 22080
        },
        {
            "buffer" : 0,
            "byteLength" : 480,
            "byteOffset" : 22720
        },
        {
            "buffer" : 0,
            "byteLength" : 24,
            "byteOffset" : 23200
        },
        {
            "buffer" : 0,
            "byteLength" : 640,
            "byteOffset" : 23224
        },
        {
            "buffer" : 0,
            "byteLength" : 24,
            "byteOffset" : 23864
        },
        {
            "buffer" : 0,
            "byteLength" : 24,
            "byteOffset" : 23888
        },
        {
            "buffer" : 0,
            "byteLength" : 640,
            "byteOffset" : 23912
        },
        {
            "buffer" : 0,
            "byteLength" : 24,
            "byteOffset" : 24552
        },
        {
            "buffer" : 0,
            "byteLength" : 24,
            "byteOffset" : 24576
        },
        {
            "buffer" : 0,
            "byteLength" : 640,
            "byteOffset" : 24600
        },
        {
            "buffer" : 0,
            "byteLength" : 24,
            "byteOffset" : 25240
        },
        {
            "buffer" : 0,
            "byteLength" : 24,
            "byteOffset" : 25264
        },
        {
            "buffer" : 0,
            "byteLength" : 640,
            "byteOffset" : 25288
        },
        {
            "buffer" : 0,
            "byteLength" : 24,
            "byteOffset" : 25928
        },
        {
            "buffer" : 0,
            "byteLength" : 24,
            "byteOffset" : 25952
        },
        {
            "buffer" : 0,
            "byteLength" : 640,
            "byteOffset" : 25976
        },
        {
            "buffer" : 0,
            "byteLength" : 24,
            "byteOffset" : 26616
        }
    ],
    "buffers" : [
        {
            "byteLength" : 26640,
            "uri" : "data:application/octet-stream;base64,"
        }
    ]
}
