{
    "asset" : {
        "generator" : "Khronos glTF Blender I/O v1.7.33",
        "version" : "2.0"
    },
    "scene" : 0,
    "scenes" : [
        {
            "name" : "Scene",
            "nodes" : [
                0
            ]
        }
    ],
    "nodes" : [
        {
            "mesh" : 0,
            "name" : "bigTree.001",
            "rotation" : [
                0,
                -0.8415871858596802,
                0,
                0.54012131690979
            ],
            "scale" : [
                1,
                1.6478874683380127,
                1
            ],
            "translation" : [
                -19.312000274658203,
                24.741252899169922,
                27.550615310668945
            ]
        }
    ],
    "materials" : [
        {
            "doubleSided" : true,
            "name" : "Material.001",
            "pbrMetallicRoughness" : {
                "baseColorFactor" : [
                    0.06680811941623688,
                    0.017150063067674637,
                    0.004558497574180365,
                    1
                ],
                "metallicFactor" : 0,
                "roughnessFactor" : 0.5
            }
        },
        {
            "doubleSided" : true,
            "name" : "Material.002",
            "pbrMetallicRoughness" : {
                "baseColorFactor" : [
                    0.028214797377586365,
                    0.07323715835809708,
                    0.004097838886082172,
                    1
                ],
                "metallicFactor" : 0,
                "roughnessFactor" : 0.5
            }
        }
    ],
    "meshes" : [
        {
            "name" : "Cube.002",
            "primitives" : [
                {
                    "attributes" : {
                        "POSITION" : 0,
                        "NORMAL" : 1,
                        "TEXCOORD_0" : 2
                    },
                    "indices" : 3,
                    "material" : 0
                },
                {
                    "attributes" : {
                        "POSITION" : 4,
                        "NORMAL" : 5,
                        "TEXCOORD_0" : 6
                    },
                    "indices" : 7,
                    "material" : 1
                }
            ]
        }
    ],
    "accessors" : [
        {
            "bufferView" : 0,
            "componentType" : 5126,
            "count" : 808,
            "max" : [
                15.051017761230469,
                10.925544738769531,
                14.614995002746582
            ],
            "min" : [
                -16.072982788085938,
                -14.729558944702148,
                -13.61033821105957
            ],
            "type" : "VEC3"
        },
        {
            "bufferView" : 1,
            "componentType" : 5126,
            "count" : 808,
            "type" : "VEC3"
        },
        {
            "bufferView" : 2,
            "componentType" : 5126,
            "count" : 808,
            "type" : "VEC2"
        },
        {
            "bufferView" : 3,
            "componentType" : 5123,
            "count" : 1212,
            "type" : "SCALAR"
        },
        {
            "bufferView" : 4,
            "componentType" : 5126,
            "count" : 1184,
            "max" : [
                20.6500186920166,
                20.529335021972656,
                16.962528228759766
            ],
            "min" : [
                -22.645252227783203,
                -4.483510971069336,
                -18.710058212280273
            ],
            "type" : "VEC3"
        },
        {
            "bufferView" : 5,
            "componentType" : 5126,
            "count" : 1184,
            "type" : "VEC3"
        },
        {
            "bufferView" : 6,
            "componentType" : 5126,
            "count" : 1184,
            "type" : "VEC2"
        },
        {
            "bufferView" : 7,
            "componentType" : 5123,
            "count" : 2700,
            "type" : "SCALAR"
        }
    ],
    "bufferViews" : [
        {
            "buffer" : 0,
            "byteLength" : 9696,
            "byteOffset" : 0
        },
        {
            "buffer" : 0,
            "byteLength" : 9696,
            "byteOffset" : 9696
        },
        {
            "buffer" : 0,
            "byteLength" : 6464,
            "byteOffset" : 19392
        },
        {
            "buffer" : 0,
            "byteLength" : 2424,
            "byteOffset" : 25856
        },
        {
            "buffer" : 0,
            "byteLength" : 14208,
            "byteOffset" : 28280
        },
        {
            "buffer" : 0,
            "byteLength" : 14208,
            "byteOffset" : 42488
        },
        {
            "buffer" : 0,
            "byteLength" : 9472,
            "byteOffset" : 56696
        },
        {
            "buffer" : 0,
            "byteLength" : 5400,
            "byteOffset" : 66168
        }
    ],
    "buffers" : [
        {
            "byteLength" : 71568,
            "uri" : "data:application/octet-stream;base64,"
        }
    ]
}
