{
    "asset" : {
        "generator" : "Khronos glTF Blender I/O v1.7.33",
        "version" : "2.0"
    },
    "scene" : 0,
    "scenes" : [
        {
            "name" : "Scene",
            "nodes" : [
                0
            ]
        }
    ],
    "nodes" : [
        {
            "mesh" : 0,
            "name" : "tree.001",
            "scale" : [
                1,
                1.6478874683380127,
                1
            ],
            "translation" : [
                5.9984893798828125,
                1.8151180744171143,
                15.468873977661133
            ]
        }
    ],
    "materials" : [
        {
            "doubleSided" : true,
            "name" : "Material.001",
            "pbrMetallicRoughness" : {
                "baseColorFactor" : [
                    0.06680811941623688,
                    0.017150063067674637,
                    0.004558497574180365,
                    1
                ],
                "metallicFactor" : 0,
                "roughnessFactor" : 0.5
            }
        },
        {
            "doubleSided" : true,
            "name" : "Material.002",
            "pbrMetallicRoughness" : {
                "baseColorFactor" : [
                    0.028214797377586365,
                    0.07323715835809708,
                    0.004097838886082172,
                    1
                ],
                "metallicFactor" : 0,
                "roughnessFactor" : 0.5
            }
        }
    ],
    "meshes" : [
        {
            "name" : "Cube.002",
            "primitives" : [
                {
                    "attributes" : {
                        "POSITION" : 0,
                        "NORMAL" : 1,
                        "TEXCOORD_0" : 2
                    },
                    "indices" : 3,
                    "material" : 0
                },
                {
                    "attributes" : {
                        "POSITION" : 4,
                        "NORMAL" : 5,
                        "TEXCOORD_0" : 6
                    },
                    "indices" : 7,
                    "material" : 1
                }
            ]
        }
    ],
    "accessors" : [
        {
            "bufferView" : 0,
            "componentType" : 5126,
            "count" : 112,
            "max" : [
                6.297633171081543,
                9.104942321777344,
                8.468332290649414
            ],
            "min" : [
                -9.071036338806152,
                -1,
                -7.7635650634765625
            ],
            "type" : "VEC3"
        },
        {
            "bufferView" : 1,
            "componentType" : 5126,
            "count" : 112,
            "type" : "VEC3"
        },
        {
            "bufferView" : 2,
            "componentType" : 5126,
            "count" : 112,
            "type" : "VEC2"
        },
        {
            "bufferView" : 3,
            "componentType" : 5123,
            "count" : 492,
            "type" : "SCALAR"
        },
        {
            "bufferView" : 4,
            "componentType" : 5126,
            "count" : 424,
            "max" : [
                9.221357345581055,
                12.163751602172852,
                8.979838371276855
            ],
            "min" : [
                -11.070135116577148,
                6.5158305168151855,
                -9.583858489990234
            ],
            "type" : "VEC3"
        },
        {
            "bufferView" : 5,
            "componentType" : 5126,
            "count" : 424,
            "type" : "VEC3"
        },
        {
            "bufferView" : 6,
            "componentType" : 5126,
            "count" : 424,
            "type" : "VEC2"
        },
        {
            "bufferView" : 7,
            "componentType" : 5123,
            "count" : 1800,
            "type" : "SCALAR"
        }
    ],
    "bufferViews" : [
        {
            "buffer" : 0,
            "byteLength" : 1344,
            "byteOffset" : 0
        },
        {
            "buffer" : 0,
            "byteLength" : 1344,
            "byteOffset" : 1344
        },
        {
            "buffer" : 0,
            "byteLength" : 896,
            "byteOffset" : 2688
        },
        {
            "buffer" : 0,
            "byteLength" : 984,
            "byteOffset" : 3584
        },
        {
            "buffer" : 0,
            "byteLength" : 5088,
            "byteOffset" : 4568
        },
        {
            "buffer" : 0,
            "byteLength" : 5088,
            "byteOffset" : 9656
        },
        {
            "buffer" : 0,
            "byteLength" : 3392,
            "byteOffset" : 14744
        },
        {
            "buffer" : 0,
            "byteLength" : 3600,
            "byteOffset" : 18136
        }
    ],
    "buffers" : [
        {
            "byteLength" : 21736,
            "uri" : "data:application/octet-stream;base64,"
        }
    ]
}
